<svg xmlns="http://www.w3.org/2000/svg" viewBox="0 0 320 320" fill="none">
<path d="M66.2135 95.0623C66.2135 43.9367 107.65 2.5 158.775 2.5C209.896 2.5 251.214 43.9325 251.214 95.0623C251.214 146.188 209.901 187.5 158.775 187.5C107.645 187.5 66.2135 146.184 66.2135 95.0623Z" stroke="#ffffff" stroke-width="7"/>
<path d="M146.771 135.035C141.963 132.942 138.561 130.28 136.472 127.179C134.329 123.997 132.889 119.757 132.256 114.404L131.969 111.978L129.532 112.196L115.524 113.447L113.169 113.657L113.233 116.019C113.448 123.959 115.584 131.213 119.773 137.593V137.594C123.975 143.992 129.849 148.761 137.142 151.906C141.727 153.883 146.964 155.156 152.758 155.859V164.107V166.621H155.274H165.656H168.172V164.107V156.243C174.716 155.806 180.79 154.427 186.342 151.884V151.883C193.146 148.764 198.454 144.314 202.165 138.581C205.839 132.904 207.696 126.82 207.696 120.329C207.696 113.856 206.069 108.002 202.64 102.913C199.188 97.7934 193.918 93.7969 187.097 90.6532L187.085 90.6471C183.233 88.8962 176.783 86.9372 168.171 84.8283V54.0496C172.461 54.8179 175.765 56.2369 178.193 58.2292C181.977 61.3367 184.327 66.0554 185.043 72.6918L185.305 75.1215L187.743 74.9284L202.001 73.8021L204.411 73.612L204.317 71.1984C204.045 64.1727 202.093 57.8983 198.403 52.2806C194.684 46.6177 189.434 42.3244 182.643 39.4613C178.23 37.5998 173.387 36.3819 168.171 35.7554V27.6426V25.1284H165.655H155.273H152.757V27.6426L152.758 35.7121C147.567 36.2301 142.665 37.2981 138.052 39.2038C131.462 41.9272 126.307 45.9972 122.772 51.4107C119.305 56.7227 117.485 62.4721 117.485 68.6701C117.485 74.3019 118.985 79.4479 121.876 84.0217C124.789 88.6317 129.162 92.4352 134.838 95.41C138.636 97.4244 144.71 99.4397 152.758 101.519V137.029M146.771 135.035C148.671 135.86 150.663 136.527 152.758 137.029M146.771 135.035L152.758 137.029" stroke="#ffffff" stroke-width="7"/>
<path d="M142.087 57.7487C144.434 55.8681 147.919 54.5034 152.757 53.8306V80.8923C149.946 80.0948 147.563 79.3154 145.614 78.5541C142.912 77.4991 141.275 76.5628 140.456 75.8176L140.449 75.8106L140.441 75.8035C138.083 73.6936 136.9 71.0246 136.9 67.6686C136.9 63.8793 138.484 60.635 142.087 57.7487Z" stroke="#ffffff" stroke-width="7"/>
<path d="M176.748 108.037L176.758 108.041L176.768 108.044C181.248 109.748 184.155 111.739 185.807 113.864C187.505 116.052 188.405 118.603 188.405 121.579C188.405 124.472 187.475 127.181 185.628 129.74C183.863 132.186 181.152 134.184 177.126 135.747C174.476 136.775 171.497 137.429 168.171 137.761V105.452C172.171 106.526 175.219 107.44 176.748 108.037Z" stroke="#ffffff" stroke-width="7"/>
<path d="M317.247 170.005L312.524 171.073C296.002 174.798 294.727 184.687 293.246 196.156C292.478 202.06 291.616 208.745 288.87 216.68C285.927 225.162 279.648 231.223 273.069 235.459C276.874 231.014 280.726 225.814 283.95 219.997C287.698 213.233 287.989 207.963 284.793 204.343C279.461 198.265 267.362 201.009 265 201.625L263.417 202.042L262.451 203.258C262.339 203.414 250.25 218.451 209.408 244.984C164.303 274.277 187.385 317.218 187.638 317.652L188.95 319.997H230.101L230.335 315.89C231.347 298.456 246.576 288.047 265.863 274.867C275.478 268.295 286.377 260.846 296.601 251.625C328.521 222.827 318.662 176.369 318.231 174.398L317.247 170.005ZM290.069 245.409C280.304 254.221 270.127 261.167 260.296 267.887C241.206 280.936 224.553 292.318 221.432 311.315H194.835C191.096 302.832 181.537 273.678 214.806 252.077C250.774 228.722 265.104 214.006 268.946 209.665C272.901 208.884 276.874 209.057 277.549 209.83C277.549 209.83 278.261 211.28 275.637 216.029C266.097 233.211 250.015 244.992 249.847 245.105L234.13 256.496L253.67 252.789C255.085 252.52 288.598 245.869 297.801 219.337C300.819 210.603 301.784 203.162 302.552 197.18C303.715 188.16 304.296 183.688 309.825 181.092C311.324 193.221 312.683 225.006 290.069 245.409Z" fill="#ffffff"/>
<path d="M54.1487 274.879C73.4355 288.059 88.6644 298.468 89.6765 315.902L89.9108 320H131.052L132.355 317.647C132.589 317.213 155.699 274.272 110.585 244.978C69.7431 218.446 57.6631 203.409 57.5506 203.261L56.576 202.019L55.0016 201.62C52.6399 201.012 40.5412 198.269 35.1994 204.338C32.013 207.967 32.2942 213.228 36.0522 219.991C39.276 225.808 43.1277 231.018 46.9326 235.454C40.3631 231.217 34.0748 225.148 31.1321 216.675C28.3768 208.731 27.5146 202.037 26.7555 196.142C25.2748 184.69 24.0003 174.793 7.46877 171.068L2.74549 170L1.77084 174.41C1.33974 176.381 -8.52855 222.83 23.4099 251.637C33.6249 260.858 44.5241 268.307 54.1487 274.879ZM10.1772 181.096C15.7064 183.7 16.2781 188.154 17.4402 197.184C18.2086 203.157 19.1739 210.597 22.2009 219.34C31.3851 245.873 64.9167 252.514 66.3318 252.792L85.9653 256.517L70.1554 245.117C69.9867 244.996 53.9426 233.301 44.3648 216.041C41.7314 211.283 42.453 209.842 42.453 209.842C43.1371 209.069 47.0919 208.904 51.0561 209.677C54.8985 214.018 69.2183 228.725 105.187 252.089C138.315 273.603 128.85 302.827 125.139 311.327H98.5701C95.44 292.33 78.7961 280.948 59.7061 267.899C49.8659 261.188 39.6977 254.233 29.9325 245.421C7.37506 225.062 8.69645 193.242 10.1772 181.096Z" fill="#ffffff"/>
</svg>